<svg width="44" height="16" viewBox="0 0 44 16" fill="none" xmlns="http://www.w3.org/2000/svg">
<path d="M14.9921 0.384277L12.614 15.183H16.4151L18.7917 0.384277H14.9921ZM26.4576 6.41244C25.1292 5.75648 24.3149 5.31377 24.3149 4.64287C24.3312 4.03288 25.0035 3.40794 26.505 3.40794C27.7399 3.37692 28.6476 3.66714 29.3362 3.95589L29.6811 4.10985L30.1979 1.0136C29.4471 0.72338 28.2567 0.403603 26.7863 0.403603C23.0326 0.403603 20.3894 2.35523 20.373 5.14649C20.342 7.20627 22.2654 8.34928 23.7048 9.03496C25.1752 9.73834 25.6757 10.1944 25.6757 10.8193C25.6595 11.7788 24.4868 12.2215 23.3925 12.2215C21.8763 12.2215 21.0618 11.9935 19.8254 11.4589L19.3249 11.2308L18.7933 14.4486C19.6862 14.8455 21.3283 15.1948 23.0328 15.2127C27.0219 15.2127 29.6176 13.2906 29.6503 10.3158C29.6633 8.684 28.6491 7.43413 26.4576 6.41244ZM39.9427 0.430075H37.0019C36.0957 0.430075 35.4071 0.690736 35.0147 1.62067L29.3685 15.183H33.3577L34.4563 12.2467H38.9194L39.4895 15.1948H43.0078L39.9427 0.430075ZM35.5627 9.28344C35.6396 9.29091 37.0938 4.49021 37.0938 4.49021L38.2518 9.28344C38.2518 9.28344 36.3135 9.28344 35.5627 9.28344ZM9.43781 0.384277L5.71369 10.4386L5.30801 8.45582C4.61941 6.16802 2.46055 3.68192 0.0512695 2.44699L3.46146 15.1682H7.48326L13.4596 0.385901H9.43781V0.384277Z" fill="#2394BC"/>
</svg>
